<svg xmlns="http://www.w3.org/2000/svg" xmlns:xlink="http://www.w3.org/1999/xlink" viewBox="0 0 454.3 454.3"><defs><style>.cls-1{fill:url(#名称未設定グラデーション_25);}.cls-2{fill:#fff;}.cls-2,.cls-3{stroke:#fff;stroke-miterlimit:10;stroke-width:0.1px;}.cls-3{fill:none;}</style><linearGradient id="名称未設定グラデーション_25" x1="-48.8" y1="386.47" x2="488.65" y2="76.17" gradientUnits="userSpaceOnUse"><stop offset="0" stop-color="#666"/><stop offset="0.18" stop-color="#626262"/><stop offset="0.36" stop-color="#565656"/><stop offset="0.55" stop-color="#414141"/><stop offset="0.58" stop-color="#3d3d3d"/><stop offset="0.79" stop-color="#2c2c2c"/><stop offset="1" stop-color="#1f1f1f"/></linearGradient></defs><title>アセット 1</title><g id="レイヤー_2" data-name="レイヤー 2"><g id="レイヤー_1-2" data-name="レイヤー 1"><rect class="cls-1" width="454.3" height="454.3"/><rect class="cls-2" x="118.44" y="179.89" width="16" height="94.26"/><line class="cls-3" x1="126.44" y1="179.89" x2="126.44" y2="274.15"/><path class="cls-2" d="M51.3,274.15V182.43c0-4.36-3.94-7.91-8.79-7.91s-8.76,3.53-8.78,7.87l0,91.76h-16l0-92.22h0C18,169,29,158.52,42.5,158.52c13.15,0,23.94,9.92,24.74,22.41h.05v93.22Z"/><path class="cls-3" d="M25.74,274.15l0-92.22v.5c0-8.79,7.52-15.91,16.78-15.91s16.79,7.12,16.79,15.91v91.72"/><path class="cls-2" d="M84.87,274.15l0-91.72c0-4.36-3.94-7.91-8.78-7.91s-8.78,3.55-8.78,7.91h-16v-.5c.28-13,11.29-23.41,24.78-23.41,13.14,0,23.93,9.92,24.73,22.41h0l0,93.22Z"/><path class="cls-3" d="M59.29,181.93v.5c0-8.79,7.51-15.91,16.78-15.91s16.78,7.12,16.78,15.91v-1.5l0,93.22"/><rect class="cls-2" x="252.72" y="179.89" width="16" height="94.26"/><line class="cls-3" x1="260.72" y1="179.89" x2="260.72" y2="274.15"/><path class="cls-2" d="M152,274.15l0-92.22h0c.28-13,11.29-23.41,24.78-23.41,13.15,0,23.93,9.92,24.73,22.41h0l0,93.22h-16l0-91.73c0-4.36-3.94-7.9-8.78-7.9s-8.76,3.53-8.78,7.87l0,91.76Z"/><path class="cls-3" d="M160,274.15l0-92.22v.49c0-8.78,7.51-15.9,16.78-15.9s16.78,7.12,16.78,15.9v-1.49l0,93.22"/><path class="cls-2" d="M219.15,274.15l0-91.73c0-4.36-3.93-7.9-8.78-7.9s-8.78,3.54-8.78,7.9h-16v-.49c.27-13,11.28-23.41,24.77-23.41,13.15,0,23.94,9.92,24.74,22.41h0l0,93.22Z"/><path class="cls-3" d="M193.57,181.93v.49c0-8.78,7.52-15.9,16.78-15.9s16.78,7.12,16.78,15.9v-1.49l0,93.22"/><path class="cls-2" d="M353.46,274.15l0-92.22h0c.28-13,11.29-23.41,24.78-23.41,13.14,0,23.93,9.92,24.73,22.41H403l0,93.22H387l0-91.73c0-4.36-3.94-7.9-8.78-7.9s-8.76,3.53-8.78,7.87l0,91.76Z"/><path class="cls-3" d="M361.45,274.15V182.42c0-8.78,7.51-15.9,16.78-15.9S395,173.64,395,182.42v-1.49l0,93.22"/><path class="cls-2" d="M420.58,274.15l0-91.73c0-4.36-3.94-7.9-8.78-7.9s-8.78,3.54-8.78,7.9H387v-.49c.27-13,11.28-23.41,24.77-23.41,13.15,0,23.93,9.92,24.74,22.41h0l0,93.22Z"/><path class="cls-3" d="M395,181.93v.49c0-8.78,7.51-15.9,16.78-15.9s16.78,7.12,16.78,15.9v-1.49l0,93.22"/><path class="cls-2" d="M311.08,295.78c-13.5,0-24.5-10.45-24.78-23.41h0l0-92.22h16l0,91.76c0,4.35,4,7.87,8.79,7.87s8.78-3.54,8.78-7.9l0-91.73h16l0,93.22h-.05C335,285.86,324.22,295.78,311.08,295.78Z"/><path class="cls-3" d="M294.31,180.15l0,92.22v-.49c0,8.78,7.52,15.9,16.79,15.9s16.78-7.12,16.78-15.9V180.15"/></g></g></svg>