<svg xmlns="http://www.w3.org/2000/svg" viewBox="0 0 497.21 189.37"><defs><style>.cls-1,.cls-3{fill:none;}.cls-2{fill:#fff;}.cls-2,.cls-3{stroke:#fff;stroke-miterlimit:10;stroke-width:0.1px;}</style></defs><title>skelton</title><g id="レイヤー_2" data-name="レイヤー 2"><g id="レイヤー_1-2" data-name="レイヤー 1"><rect class="cls-1" width="497.21" height="189.37"/><rect class="cls-2" x="139.89" y="47.42" width="16" height="94.26"/><line class="cls-3" x1="147.89" y1="47.42" x2="147.89" y2="141.69"/><path class="cls-2" d="M72.76,141.69l0-91.73c0-4.36-3.94-7.91-8.78-7.91s-8.76,3.53-8.78,7.87v91.76h-16V49.46h0c.28-13,11.28-23.41,24.78-23.41,13.14,0,23.93,9.93,24.73,22.42h0l0,93.21Z"/><path class="cls-3" d="M47.19,141.69V50c0-8.79,7.51-15.91,16.78-15.91S80.74,41.17,80.74,50V48.47l0,93.22"/><path class="cls-2" d="M106.32,141.69l0-91.73c0-4.36-3.94-7.91-8.78-7.91S88.74,45.6,88.74,50h-16v-.5C73,36.51,84,26.05,97.52,26.05c13.14,0,23.93,9.93,24.73,22.42h0l0,93.21Z"/><path class="cls-3" d="M80.74,49.46V50c0-8.79,7.51-15.91,16.78-15.91S114.3,41.17,114.3,50V48.47l0,93.22"/><rect class="cls-2" x="274.18" y="47.42" width="16" height="94.26"/><line class="cls-3" x1="282.18" y1="47.42" x2="282.18" y2="141.68"/><path class="cls-2" d="M173.48,141.69l0-92.23h0c.27-13,11.28-23.41,24.77-23.41,13.15,0,23.93,9.93,24.74,22.41h0l0,93.22H207L207,50c0-4.36-3.93-7.91-8.78-7.91s-8.76,3.53-8.78,7.87l0,91.76Z"/><path class="cls-3" d="M181.48,141.68l0-92.22V50c0-8.79,7.51-15.91,16.78-15.91S215,41.17,215,50V48.47l0,93.21"/><path class="cls-2" d="M240.6,141.69V50c0-4.36-3.94-7.91-8.78-7.91S223,45.6,223,50H207v-.5c.27-13,11.28-23.41,24.78-23.41,13.14,0,23.93,9.93,24.73,22.41h0v93.22Z"/><path class="cls-3" d="M215,49.46V50c0-8.79,7.52-15.91,16.79-15.91S248.59,41.17,248.59,50v91.72"/><path class="cls-2" d="M374.91,141.69l0-92.23h0c.28-13,11.29-23.41,24.78-23.41,13.15,0,23.93,9.93,24.74,22.41h0l0,93.22h-16l0-91.73c0-4.36-3.94-7.91-8.78-7.91s-8.76,3.53-8.78,7.87l0,91.76Z"/><path class="cls-3" d="M382.91,141.68l0-92.22V50c0-8.79,7.51-15.91,16.78-15.91S416.45,41.17,416.45,50V48.47l0,93.21"/><path class="cls-2" d="M442,141.69V50c0-4.36-3.94-7.91-8.79-7.91s-8.78,3.55-8.78,7.91h-16v-.5c.27-13,11.28-23.41,24.77-23.41,13.15,0,23.94,9.93,24.74,22.41h0v93.22Z"/><path class="cls-3" d="M416.45,49.46V50c0-8.79,7.52-15.91,16.78-15.91S450,41.17,450,50v91.72"/><path class="cls-2" d="M332.53,163.32c-13.49,0-24.5-10.46-24.78-23.41h0V47.68h16v91.76c0,4.34,3.95,7.87,8.78,7.87s8.78-3.55,8.78-7.91l0-91.73h16l0,93.21h-.05C356.46,153.39,345.67,163.32,332.53,163.32Z"/><path class="cls-3" d="M315.76,47.68v91.73c0,8.79,7.51,15.91,16.78,15.91s16.78-7.12,16.78-15.91v1.49l0-93.22"/></g></g></svg>